# xmcd
#
# Track frame offsets: 
#        150
#        14453
#        27374
#        44413
#        49603
#        64678
#        82701
#
# Disc length: 1327 seconds
#
# Revision: 0
# Processed by: cddbd v1.5.2PL0 Copyright (c) Steve Scherf et al.
# Submitted via: ExactAudioCopyFreeDBPlugin 1.0
#
DISCID=4c052d07
DTITLE=Sadistik x Kno - Phantom Limbs
DYEAR=2015
DGENRE=Hip-Hop
TTITLE0=The Darkness
TTITLE1=To Be in Love
TTITLE2=Hers Forever
TTITLE3=Phantom Limbs (interlude)
TTITLE4=Daydreams (feat. JMSN)
TTITLE5=Unaware (feat. Chino XL, Sheisty Khrisi and Metasota)
TTITLE6=In Heaven
EXTD=
EXTT0=
EXTT1=
EXTT2=
EXTT3=
EXTT4=
EXTT5=
EXTT6=
PLAYORDER=
